<svg version="1.2" xmlns="http://www.w3.org/2000/svg"
	viewBox="0 -5.684341886080802e-14 500 500.00000000000006" width="500" height="501">
	<title>3281935</title>
	<style>
		.s0 { fill: none;stroke: #c0a589f3;stroke-linecap: round;stroke-linejoin: round;stroke-width:
		2.4 }
	</style>
	<g id="BACKGROUND">
	</g>
	<g id="OBJECTS">
		<g id="&lt;Group&gt;">
		</g>
		<g id="&lt;Group&gt;">
			<path id="&lt;Path&gt;" class="s0" d="m23.3 500h453.4" />
			<path id="&lt;Path&gt;" class="s0"
				d="m121.1 474.7c-2.8 4.1-7.7 6.8-12.6 6.6-5-0.2-9.8-3.5-11.4-8.2-1.7-4.7 0.2-10.5 4.4-13.1 3.2-1.9 7.1-2 10.7-1.8 0.7-6 5.1-11.9 10.4-14.7 5.3-2.8 12-2.8 17.3 0 5.4 2.8 9.1 8.3 9.8 14.3q0-0.7 0.1-1.4c4-2.8 9.6-0.6 12.6 3.2 3 3.9 2.7 9.8-0.4 13.6-3.1 3.7-8.7 5.1-13.3 3.4-3.9 3.1-9.1 4.5-14 4.2-4.9-0.3-10.1-2.6-13.6-6.1z" />
			<path id="&lt;Path&gt;" class="s0" d="m112.7 401.5c1.9 12.3 0.4 25.1-4.5 36.6" />
			<path id="&lt;Path&gt;" class="s0"
				d="m72.1 402.5c5.2 17.4 16.7 32.7 31.9 42.6 0.8 4.3 1.2 8.6 1.1 12.9" />
			<path id="&lt;Path&gt;" class="s0" d="m113.2 418.8c4.3-1.4 8-4.7 9.8-8.8" />
			<path id="&lt;Path&gt;" class="s0" d="m80.4 420.6c3.6-2.2 5.8-6.4 5.7-10.6" />
			<path id="&lt;Path&gt;" class="s0" d="m87.5 431c-3.3 2.5-8 3.1-11.9 1.4" />
			<path id="&lt;Path&gt;" class="s0"
				d="m98.3 474.3c-3.8 5.2-11.3 7.4-17.3 4.9-6-2.5-9.8-9.4-8.7-15.7-5.4 2.1-11.6 2-16.8-0.7-5.2-2.6-9-7.8-9.9-13.5-0.8-5.7 1.5-11.9 6.1-15.4-5.3-1.6-9.9-6.4-10.6-12-0.7-5.5 2.2-11.4 7-14.2-7.5-6.3-9.7-18-5.9-27 3.9-8.9 14-14.8 23.7-13.7 9.7 1.2 18.2 9.2 19.9 18.8 4.9-10.3 17.2-15.8 28.5-14 11.3 1.8 20.9 11.5 22.5 22.9 3-1.8 6.9-1.2 9.8 0.8 2.9 2 4.5 5.8 3.8 9.3" />
			<path id="&lt;Path&gt;" class="s0"
				d="m139.9 443.7c-0.9-1.8-1.1-4.1-0.4-6.1 0.7-1.9 2.2-3.6 4.2-4.4-4.2-4.3-6.2-10.1-4.8-15.9 1.4-5.9 6-10.8 11.6-12.7-0.9-5.7 0.2-11.6 4.1-15.9 3.9-4.2 10.5-6.1 15.7-3.5 3.9 1.9 6.5 5.9 7.3 10.2 0.9 4.2 0.3 8.7-1 12.8 3.9 2.7 6.5 7 6.8 11.7 0.4 4.7-1.5 9.5-4.9 12.7 2.5 1.2 4.1 3.6 4.4 6.5 0.3 2.8-1 5.7-3.3 7.3 4.1 2.5 7 6.7 7.4 11.4 0.4 4.7-1.6 9.5-5.2 12.6-2.4 2.1-5.9 3.3-8.7 1.8-0.7 4-3.6 6.8-7.4 7.9-3.9 1.1-8.3-0.2-10.9-3.2" />
			<path id="&lt;Path&gt;" class="s0" d="m163.8 407.5q-4 24.2-7.9 48.4" />
			<path id="&lt;Path&gt;" class="s0" d="m92.1 478.9q0 0.7 0 1.4v19" />
			<path id="&lt;Path&gt;" class="s0" d="m109 481q0 0.4 0 0.7v17.4" />
			<path id="&lt;Path&gt;" class="s0" d="m127.5 479.4q0 0.7 0 1.4v19" />
			<path id="&lt;Path&gt;" class="s0" d="m149.1 477.5v22.5" />
			<path id="&lt;Path&gt;" class="s0" d="m160.3 481v19" />
			<path id="&lt;Path&gt;" class="s0" d="m169.7 417c-1.1 4.5-4.3 8.3-8.4 10.4" />
			<path id="&lt;Path&gt;" class="s0" d="m151.2 436.2c0.4 3.4 3.2 6.4 6.5 7" />
			<path id="&lt;Path&gt;" class="s0" d="m169.5 463.8c3.9-0.5 7.4-3.2 9-6.7" />
			<path id="&lt;Path&gt;" class="s0"
				d="m87.9 381.3c8.1-32 15.2-64.3 21.3-96.8 0.2 0 0.3-0.2 0.5-0.2h5.2c2.6 11 5.4 21.8 8 32.8" />
			<path id="&lt;Path&gt;" class="s0"
				d="m169.5 281.5h-49.3q-0.4 0-0.9 0c1.7 7.5 3.3 14.6 6.2 21.7 0.2 0 0.7 0.1 0.8 0.1h29.1" />
			<path id="&lt;Path&gt;" class="s0" d="m108.8 284.1c0.1-1.9 0.1-3.8 0.2-5.7v-5.8" />
			<path id="&lt;Path&gt;" class="s0" d="m112.2 238.3q0 0.5 0 1v10" />
			<path id="&lt;Path&gt;" class="s0"
				d="m112.3 273c-3.8 0.4-7.5-2.6-7.9-6.4-0.4-3.7 2.5-7.5 6.2-7.9" />
			<path id="&lt;Path&gt;" class="s0"
				d="m152.5 187.7c1.7-2.1 1.2-5.4-0.9-7-2-1.6-5.4-1.2-7 0.8-4.1 5.2 4 11.1 7.9 6.2z" />
			<path id="&lt;Path&gt;" class="s0"
				d="m120.6 282.1c-2.7-4.1-5.4-8.2-7.2-12.8-1.8-4.5-2.8-9.5-1.9-14.3 1.6-8.4 8.2-14.7 14-21 6.3-6.9 12.1-15.5 16.8-23.6q0.2 0 0.4 0" />
			<path id="&lt;Path&gt;" class="s0" d="m148.4 152.4q0 0.9 0 1.8v25.1" />
			<path id="&lt;Path&gt;" class="s0" d="m141.6 211.4c2.8-6.9 4.3-14.4 4.2-21.9" />
			<path id="&lt;Path&gt;" class="s0" d="m155 211.4c-2.9-6.9-4.3-14.4-4.2-21.9" />
			<path id="&lt;Path&gt;" class="s0"
				d="m176.7 280.7c2.7-4.1 4.5-6.8 6.3-11.4 1.9-4.5 2.8-9.5 1.9-14.3-1.5-8.4-8.2-14.7-14-21-6.3-6.9-12-15.5-16.8-23.6q-0.2 0-0.4 0" />
			<path id="&lt;Path&gt;" class="s0" d="m188.3 244c4.7-4.6 14.8-13 21.4-21.8" />
			<path id="&lt;Path&gt;" class="s0" d="m193.2 276.8c-2.7-3.7-2.3-2.5-4.2-6.5" />
			<path id="&lt;Path&gt;" class="s0"
				d="m241.4 276.8c2.7-3.7 5.4-7.3 7.2-11.3 1.9-4.1 2.8-8.5 1.9-12.8-1.5-7.4-8.2-12.9-14-18.5-3.9-3.8-7.6-8.2-11-12.7" />
			<path id="&lt;Path&gt;" class="s0" d="m153.7 210.4h-11" />
			<path id="&lt;Path&gt;" class="s0" d="m153.5 162.4l-10.6-4.9" />
			<g id="&lt;Group&gt;">
				<path id="&lt;Path&gt;" class="s0"
					d="m278.2 17.6c0.8-1 0.6-2.7-0.4-3.5-1.1-0.8-2.7-0.6-3.5 0.4-2.1 2.6 2 5.5 3.9 3.1z" />
				<path id="&lt;Path&gt;" class="s0"
					d="m262.3 64.6c-1.3-2.1-2.6-4.1-3.6-6.4-0.9-2.3-1.3-4.8-0.9-7.2 0.8-4.1 4.1-7.2 7-10.4 3.1-3.4 6-7.7 8.3-11.7q0.1 0 0.2 0" />
				<path id="&lt;Path&gt;" class="s0" d="m276.1 0q0 0.5 0 0.9v12.5" />
				<path id="&lt;Path&gt;" class="s0" d="m272.8 29.4c1.4-3.5 2.1-7.2 2-10.9" />
				<path id="&lt;Path&gt;" class="s0" d="m279.4 29.4c-1.4-3.5-2.1-7.2-2-10.9" />
				<path id="&lt;Path&gt;" class="s0"
					d="m290.2 63.8c1.4-2 2.3-3.3 3.2-5.6 0.9-2.3 1.4-4.8 0.9-7.2-0.8-4.1-4.1-7.2-6.9-10.4-3.2-3.4-6-7.7-8.4-11.7q-0.1 0-0.2 0" />
				<path id="&lt;Path&gt;" class="s0" d="m278.8 28.9h-5.5" />
				<path id="&lt;Path&gt;" class="s0" d="m278.7 5l-5.3-2.4" />
			</g>
			<g id="&lt;Group&gt;">
				<path id="&lt;Path&gt;" class="s0"
					d="m376.1 182.1c1.5-1.9 1.1-4.9-0.8-6.3-1.9-1.5-4.9-1.1-6.4 0.7-3.8 4.7 3.7 10 7.2 5.6z" />
				<path id="&lt;Path&gt;" class="s0"
					d="m347 266.7c-2.5-3.7-5-7.4-6.7-11.5-1.6-4.1-2.5-8.6-1.7-12.9 1.4-7.5 7.5-13.1 12.8-18.7 5.8-6.2 11-13.9 15.3-21.2q0.3 0 0.5 0" />
				<path id="&lt;Path&gt;" class="s0" d="m372.3 150.4q0 0.8 0 1.7v22.5" />
				<path id="&lt;Path&gt;" class="s0" d="m366.1 203.3c2.6-6.2 3.9-12.9 3.8-19.6" />
				<path id="&lt;Path&gt;" class="s0" d="m378.4 203.3c-2.6-6.2-3.9-12.9-3.8-19.6" />
				<path id="&lt;Path&gt;" class="s0"
					d="m398.2 265.4c2.5-3.7 4.1-6.1 5.8-10.2 1.7-4.1 2.6-8.6 1.8-12.9-1.5-7.5-7.6-13.1-12.8-18.7-5.8-6.2-11.1-13.9-15.4-21.2q-0.2 0-0.4 0" />
				<path id="&lt;Path&gt;" class="s0" d="m377.2 202.4h-10" />
				<path id="&lt;Path&gt;" class="s0" d="m377.1 159.4l-9.8-4.4" />
			</g>
			<g id="&lt;Group&gt;">
				<path id="&lt;Path&gt;" class="s0"
					d="m314.7 255.7c1.2-1.5 0.9-3.9-0.6-5.1-1.6-1.2-4-0.9-5.2 0.6-3 3.8 2.9 8.1 5.8 4.5z" />
				<path id="&lt;Path&gt;" class="s0"
					d="m291.4 324.7c-2-3-3.9-6-5.3-9.3-1.3-3.4-2-7-1.4-10.5 1.2-6.2 6-10.7 10.2-15.3 4.7-5.1 8.9-11.4 12.3-17.3q0.2 0 0.3 0" />
				<path id="&lt;Path&gt;" class="s0" d="m311.7 229.9q0 0.7 0 1.4v18.3" />
				<path id="&lt;Path&gt;" class="s0" d="m306.7 273c2.1-5 3.1-10.5 3.1-15.9" />
				<path id="&lt;Path&gt;" class="s0" d="m316.5 273c-2.1-5-3.1-10.5-3.1-15.9" />
				<path id="&lt;Path&gt;" class="s0"
					d="m332.4 323.7c1.9-3 3.2-5 4.6-8.3 1.3-3.4 2-7 1.4-10.5-1.2-6.2-6.1-10.7-10.3-15.3-4.6-5.1-8.8-11.4-12.2-17.3q-0.2 0-0.4 0" />
				<path id="&lt;Path&gt;" class="s0" d="m315.5 272.3h-8" />
				<path id="&lt;Path&gt;" class="s0" d="m315.4 237.2l-7.8-3.5" />
			</g>
			<path id="&lt;Path&gt;" class="s0"
				d="m222.2 199.9c1.6-2.1 1.2-5.4-0.9-7-2.1-1.6-5.4-1.2-7.1 0.8-4.1 5.2 4.1 11.1 8 6.2z" />
			<path id="&lt;Path&gt;" class="s0" d="m218 164.6q0 0.9 0 1.8v25.1" />
			<path id="&lt;Path&gt;" class="s0" d="m223.2 174.6l-10.7-4.9" />
			<path id="&lt;Path&gt;" class="s0"
				d="m176.2 274.5c1.2-1.6 0.9-4.2-0.7-5.5-1.6-1.2-4.2-0.9-5.4 0.7-3.2 4 3.1 8.6 6.1 4.8z" />
			<path id="&lt;Path&gt;" class="s0" d="m173 247.2q0 0.7 0 1.4v19.4" />
			<path id="&lt;Path&gt;" class="s0" d="m177 254.9l-8.3-3.7" />
			<path id="&lt;Path&gt;" class="s0"
				d="m121.5 351.2c1.3-1.6 1-4.2-0.7-5.5-1.6-1.2-4.1-0.9-5.4 0.7-3.2 4 3.1 8.6 6.1 4.8z" />
			<path id="&lt;Path&gt;" class="s0" d="m118.3 323.9q0 0.7 0 1.4v19.4" />
			<path id="&lt;Path&gt;" class="s0" d="m122.3 331.6l-8.2-3.7" />
			<path id="&lt;Path&gt;" class="s0" d="m209.7 222.2h16.3" />
			<path id="&lt;Path&gt;" class="s0"
				d="m241.3 321.7v-42.6c0-0.6 0.1-1.5 0.1-2.1h-47.3c0 0.2 0.2 0.5 0.2 0.7v43.7z" />
			<path id="&lt;Path&gt;" class="s0"
				d="m170.8 276.7c-0.3 4.8-2.4 9.2-5.1 13.1-2.7 3.9-5.9 7.4-8.6 11.3-2.7 3.9-4.9 8.3-5.2 13-0.4 4.7 1.6 9.8 5.6 12.3h29.4" />
			<path id="&lt;Path&gt;" class="s0"
				d="m194.1 313.6c-0.3-4.7-2.6-8.6-5.3-12.5-2.7-3.9-5.9-7.4-8.6-11.3-2.7-3.9-4.9-8.3-5.1-13.1" />
			<path id="&lt;Path&gt;" class="s0" d="m116.3 351.9c-0.6 8-7.7 13.8-12.6 19.4" />
			<path id="&lt;Path&gt;" class="s0" d="m138 390.3c8.5-14.6-16.5-25-17.5-38.4" />
			<path id="&lt;Path&gt;" class="s0" d="m185.5 337.3h65.5" />
			<path id="&lt;Path&gt;" class="s0"
				d="m185.2 337.7c1.6 2.7 2.8 6 3.3 9.1q0.1 0 0.2 0h57.5c1.1-3.4 2.9-6.4 4.9-9.3" />
			<path id="&lt;Path&gt;" class="s0" d="m125.9 302.9c-0.7 8.5-2.1 16.9-4 25.3" />
			<path id="&lt;Path&gt;" class="s0" d="m118.2 341.9q0.1 0 0.1 0h39.1" />
			<path id="&lt;Path&gt;" class="s0" d="m121.7 357c0.2 0.1 0.3 0.2 0.5 0.2h11.5" />
			<path id="&lt;Path&gt;" class="s0" d="m141.4 357.6h43.8" />
			<path id="&lt;Path&gt;" class="s0" d="m158.1 327.1q0.1 0.4 0.2 0.7v26.8" />
			<path id="&lt;Path&gt;" class="s0" d="m159 334q0.2 0 0.5 0h25.7" />
			<path id="&lt;Path&gt;" class="s0" d="m159.2 351.6q0.1-0.1 0.3-0.2h25.2" />
			<path id="&lt;Path&gt;" class="s0" d="m167.2 340.2q0 0.6 0 1.2v8.6" />
			<path id="&lt;Path&gt;" class="s0" d="m177.6 340.2q0 0.6 0 1.2v8.6" />
			<path id="&lt;Path&gt;" class="s0"
				d="m157.9 329.2c-4.6 2.3-6.6 6.5-7.7 11.5q-0.1 0.3-0.2 0.6c0.5-4.2-1.6-8.5-5.2-10.7-3.6-2.2-8.4-2.1-11.9 0.2-3.5 2.3-5.5 6.7-4.9 10.9-0.7-2.1-1.2-4.1-1.9-6.1" />
			<path id="&lt;Path&gt;" class="s0"
				d="m218.2 334.8q-0.1 0.3-0.2 0.6c0.5-4.2-1.6-8.5-5.2-10.7-3.5-2.2-8.4-2.1-11.9 0.2-3.5 2.3-5.5 6.7-4.9 10.9" />
			<path id="&lt;Path&gt;" class="s0"
				d="m240.7 334.8q0 0.3-0.1 0.6c0.5-4.2-1.6-8.5-5.2-10.7-3.6-2.2-8.4-2.1-12 0.2-3.5 2.3-5.4 6.7-4.8 10.9" />
			<path id="&lt;Path&gt;" class="s0"
				d="m251.1 334.8q0 0.3 0 0.6c0.2-4.2-0.8-8.5-2.4-10.7-1.7-2.2-3.9-2.1-5.5 0.2-1.6 2.3-2.5 6.7-2.2 10.9" />
			<path id="&lt;Path&gt;" class="s0"
				d="m195.7 334.8q-0.1 0.3-0.1 0.6c0.2-4.2-0.8-8.5-2.4-10.7-1.6-2.2-3.9-2.1-5.5 0.2-1.6 2.3-2.5 6.7-2.2 10.9" />
			<path id="&lt;Path&gt;" class="s0"
				d="m301.5 223.3c-0.1 0.2 0.7-7.9-5.8-11.5-3.9-2.2-9.1-1.7-12.6 0.6-3.5 2.3-5.5 6.7-4.9 10.8" />
			<path id="&lt;Path&gt;" class="s0"
				d="m271.7 223.3c-0.1 0.2 0.7-7.9-5.8-11.5-3.9-2.2-9.1-1.7-12.6 0.6-3.5 2.3-5.5 6.7-4.9 10.8" />
			<path id="&lt;Path&gt;" class="s0"
				d="m318.1 222.3q0 0.3 0 0.6c0.2-4.2-0.8-8.5-2.4-10.7-1.6-2.2-3.9-2.1-5.5 0.2-1.6 2.3-2.5 6.7-2.2 10.8" />
			<path id="&lt;Path&gt;" class="s0"
				d="m325 254.7q0 0.3-0.1 0.6c0.3-4.1-0.7-8.5-2.4-10.7-1.6-2.2-3.8-2.1-5.4 0.2" />
			<path id="&lt;Path&gt;" class="s0"
				d="m241.6 222.3q-0.1 0.3-0.1 0.6c0.2-4.2-0.8-8.5-2.4-10.7-1.6-2.2-3.9-2.1-5.5 0.2-1.6 2.3-2.5 6.7-2.2 10.8" />
			<path id="&lt;Path&gt;" class="s0"
				d="m397.7 332c0 0.2 0.7-8-5.3-11.6-3.7-2.2-8.5-1.7-11.8 0.6-3.3 2.3-5.1 6.7-4.6 10.9" />
			<path id="&lt;Path&gt;" class="s0"
				d="m369.9 332c-0.1 0.2 0.7-8-5.4-11.6-3.6-2.2-8.5-1.7-11.7 0.6-3.3 2.3-5.2 6.7-4.6 10.9" />
			<path id="&lt;Path&gt;" class="s0"
				d="m413.3 330.9q0 0.3-0.1 0.6c0.3-4.1-0.7-8.5-2.2-10.7-1.5-2.2-3.6-2.1-5.1 0.2-1.5 2.3-2.3 6.7-2.1 10.9" />
			<path id="&lt;Path&gt;" class="s0"
				d="m341.8 330.9q-0.1 0.3-0.1 0.6c0.2-4.1-0.7-8.5-2.2-10.7-1.6-2.2-3.6-2.1-5.1 0.2-1.5 2.3-2.4 6.7-2.1 10.9" />
			<path id="&lt;Path&gt;" class="s0"
				d="m324.2 363c0 0.1 0.4-4-2.9-5.8-1.9-1.1-4.6-0.9-6.3 0.3-1.8 1.1-2.8 3.4-2.5 5.5" />
			<path id="&lt;Path&gt;" class="s0"
				d="m307.9 363c0 0.1 0.4-4-2.9-5.8-2-1.1-4.6-0.9-6.4 0.3-1.7 1.1-2.7 3.4-2.4 5.5" />
			<path id="&lt;Path&gt;" class="s0"
				d="m335.5 362.4q0 0.2 0 0.4c0.1-2.1-0.4-4.3-1.2-5.4-0.8-1.2-2-1.1-2.8 0.1-0.8 1.1-1.2 3.3-1.1 5.4" />
			<path id="&lt;Path&gt;" class="s0"
				d="m291.5 362.4q0 0.2 0 0.4c0.1-2.1-0.4-4.3-1.2-5.4-0.8-1.2-1.9-1.1-2.8 0.1-0.8 1.1-1.2 3.3-1.1 5.4" />
			<path id="&lt;Path&gt;" class="s0"
				d="m299.6 376.8c0 0.1 0.5-5-3.6-7.2-2.4-1.4-5.6-1.1-7.8 0.3-2.2 1.5-3.5 4.2-3.1 6.8" />
			<path id="&lt;Path&gt;" class="s0"
				d="m318.6 376.8c0 0.1 0.5-5-3.6-7.2-2.4-1.4-5.6-1.1-7.8 0.3-2.2 1.5-3.4 4.2-3.1 6.8" />
			<path id="&lt;Path&gt;" class="s0"
				d="m309.6 394.6c-0.1 0.3 0.8-8.3-6-12.1-4.1-2.3-9.6-1.8-13.3 0.6-3.7 2.4-5.8 7.1-5.1 11.5" />
			<path id="&lt;Path&gt;" class="s0"
				d="m339.3 394.6c0 0.3 0.9-8.3-6-12.1-4.1-2.3-9.6-1.8-13.2 0.6-3.7 2.4-5.8 7.1-5.2 11.5" />
			<path id="&lt;Path&gt;" class="s0"
				d="m338.1 376.8c0 0.1 0.5-5-3.7-7.2-2.5-1.4-5.8-1.1-8.1 0.3-2.2 1.5-3.5 4.2-3.1 6.8" />
			<path id="&lt;Path&gt;" class="s0"
				d="m241.6 238.4q-0.1 0.4-0.1 0.7c0.2-4.2-0.8-8.5-2.4-10.7-1.6-2.2-3.9-2.2-5.5 0.1" />
			<path id="&lt;Path&gt;" class="s0"
				d="m301.5 239.6c-0.1 0.2 0.7-8-5.8-11.6-3.9-2.2-9.1-1.7-12.6 0.6-3.5 2.3-5.5 6.7-4.9 10.9" />
			<path id="&lt;Path&gt;" class="s0"
				d="m271.7 239.6c-0.1 0.2 0.7-8-5.8-11.6-3.9-2.2-9.1-1.7-12.6 0.6-3.5 2.3-5.5 6.7-4.9 10.9" />
			<path id="&lt;Path&gt;" class="s0"
				d="m381.4 318.8c0 0.1 0.6-5.6-4-8.2-2.7-1.5-6.4-1.2-8.8 0.4-2.5 1.7-3.9 4.8-3.5 7.7" />
			<path id="&lt;Path&gt;" class="s0"
				d="m401.4 318.8c0 0.1 0.5-5.6-4-8.2-2.8-1.5-6.4-1.2-8.9 0.4-2.5 1.7-3.8 4.8-3.4 7.7" />
			<path id="&lt;Path&gt;" class="s0"
				d="m360.5 318.8c0 0.1 0.6-5.6-4-8.2-2.7-1.5-6.4-1.2-8.9 0.4-2.4 1.7-3.8 4.8-3.4 7.7" />
			<path id="&lt;Path&gt;" class="s0"
				d="m301.5 254.9c-0.1 0.2 0.7-8-5.8-11.6-3.9-2.2-9.1-1.7-12.6 0.6-3.5 2.3-5.5 6.7-4.9 10.9" />
			<path id="&lt;Path&gt;" class="s0"
				d="m271.7 254.9c-0.1 0.2 0.7-8-5.8-11.6-3.9-2.2-9.1-1.7-12.6 0.6" />
			<path id="&lt;Path&gt;" class="s0"
				d="m132.1 368.9q3-8.3 5.5-16.7c3.2 9.4 6.4 19 9.6 28.4" />
			<path id="&lt;Path&gt;" class="s0"
				d="m147.4 381.7c0.5-2.2 1.4-4.4 3-6 1.6-1.6 4-2.5 6.2-2 1.6 0.4 3 1.7 4 3.1 0.9 1.4 1.5 3 2.1 4.7" />
			<path id="&lt;Path&gt;" class="s0"
				d="m166.5 381.7c0.5-2.2 1.4-4.4 3-6 1.6-1.6 4-2.5 6.2-2 1.6 0.4 3 1.7 4 3.1 1 1.4 1.5 3 2.1 4.7" />
			<path id="&lt;Path&gt;" class="s0"
				d="m156.1 371.6c0.6-2.2 1.5-4.4 3.1-6 1.6-1.6 3.9-2.5 6.1-2 1.7 0.4 3.1 1.7 4 3.1 1 1.4 1.6 3.1 2.2 4.7" />
			<path id="&lt;Path&gt;" class="s0"
				d="m174.3 371.6c0.6-2.2 1.5-4.4 3.1-6 1.6-1.6 3.9-2.5 6.1-2" />
			<path id="&lt;Path&gt;" class="s0"
				d="m144.8 370.9c0.4-2.2 1-4.3 2-5.9 1.1-1.6 2.6-2.5 4-2 1.1 0.4 2 1.6 2.7 3.1 0.6 1.4 1 3 1.4 4.6" />
			<path id="&lt;Path&gt;" class="s0"
				d="m142.3 390.4c0.4-2.2 1-4.3 2-5.9 1.1-1.6 2.6-2.5 4.1-2 1.1 0.4 2 1.6 2.6 3.1 0.6 1.4 1 3 1.4 4.6" />
			<path id="&lt;Path&gt;" class="s0"
				d="m177 390.4c0.3-2.2 0.9-4.3 2-5.9 1-1.6 2.6-2.5 4-2" />
			<path id="&lt;Path&gt;" class="s0" d="m188.7 346.8l-4.2 48" />
			<path id="&lt;Path&gt;" class="s0" d="m246.5 346.8l4.2 48" />
			<path id="&lt;Path&gt;" class="s0" d="m184.5 394.8h66.2" />
			<path id="&lt;Path&gt;" class="s0" d="m194.1 295.3q0.1 0 0.2 0h46.8" />
			<path id="&lt;Path&gt;" class="s0" d="m209.7 221.9q3.5-9.9 7-19.7" />
			<path id="&lt;Path&gt;" class="s0" d="m225.8 221.9q-3.5-9.9-7-19.7" />
			<path id="&lt;Path&gt;" class="s0" d="m197.3 394.8l10.6-47.6" />
			<path id="&lt;Path&gt;" class="s0" d="m217.9 394.8l-10.6-47.6" />
			<path id="&lt;Path&gt;" class="s0" d="m217.8 394.8l10.6-47.6" />
			<path id="&lt;Path&gt;" class="s0" d="m238.4 394.8l-10.6-47.6" />
			<path id="&lt;Path&gt;" class="s0" d="m238.5 394.8l7.7-48" />
			<path id="&lt;Path&gt;" class="s0" d="m196.9 394.8l-7.7-48" />
			<path id="&lt;Path&gt;" class="s0" d="m256.6 178l10.1-20.7" />
			<path id="&lt;Path&gt;" class="s0" d="m276.2 178l-10.1-20.7" />
			<path id="&lt;Path&gt;" class="s0" d="m276.1 178l10.1-20.7" />
			<path id="&lt;Path&gt;" class="s0" d="m295.7 178l-10.1-20.7" />
			<path id="&lt;Path&gt;" class="s0" d="m295.8 178l7.3-20.8" />
			<path id="&lt;Path&gt;" class="s0" d="m256.1 178l-7.3-20.8" />
			<path id="&lt;Path&gt;" class="s0" d="m333.2 413.5l22.1-59.6" />
			<path id="&lt;Path&gt;" class="s0" d="m368.6 394.8l-14.1-40.9" />
			<path id="&lt;Path&gt;" class="s0" d="m368.4 394.8l14.1-40.9" />
			<path id="&lt;Path&gt;" class="s0" d="m395.8 394.8l-14.1-40.9" />
			<path id="&lt;Path&gt;" class="s0" d="m396 394.8l10.2-41.2" />
			<path id="&lt;Path&gt;" class="s0"
				d="m251 394.1c1.9 2.3 3.6 4.5 5.4 6.8h-77.9c1.7-2.7 3.9-4.9 6.7-6.6" />
			<path id="&lt;Path&gt;" class="s0"
				d="m243.4 415.8h-59.7c0 0.1-0.3-0.1-0.1-0.2 0-0.3 0.1-0.7 0.1-1v-13.2" />
			<path id="&lt;Path&gt;" class="s0" d="m282.9 95.4h-13.7l-7-30.8h27.7z" />
			<path id="&lt;Path&gt;" class="s0" d="m282.9 95.4h-13.7l-28.1 82.4h69.9z" />
			<path id="&lt;Path&gt;" class="s0"
				d="m241.3 177.4c-3.3 2.5-6.6 5-9.9 7.5h89.4c-3.3-2.4-6.9-4.9-10.2-7.4" />
			<path id="&lt;Path&gt;" class="s0" d="m301.5 255.3h-49.5" />
			<path id="&lt;Path&gt;" class="s0" d="m300.9 261.9h-49.5" />
			<path id="&lt;Path&gt;" class="s0" d="m324.9 255.3v30.1" />
			<path id="&lt;Path&gt;" class="s0" d="m292.1 324.7v30.1" />
			<path id="&lt;Path&gt;" class="s0" d="m331.7 324.7v30.1" />
			<path id="&lt;Path&gt;" class="s0" d="m241.5 312.6h42.6" />
			<path id="&lt;Path&gt;" class="s0" d="m240.4 337.3h50.6" />
			<path id="&lt;Path&gt;" class="s0" d="m240.4 346.8h50.6" />
			<path id="&lt;Path&gt;" class="s0" d="m250.3 382.9h33.8" />
			<path id="&lt;Path&gt;" class="s0" d="m349 394.8h57.2" />
			<path id="&lt;Path&gt;" class="s0" d="m354.5 402.3h56.5" />
			<path id="&lt;Path&gt;" class="s0" d="m362.8 459h48.2" />
			<path id="&lt;Path&gt;" class="s0" d="m337 319h71.5" />
			<path id="&lt;Path&gt;" class="s0" d="m346.4 307.6h52.2" />
			<path id="&lt;Path&gt;" class="s0" d="m351.9 307.6c0 0 0 0 0-29h41.2v29" />
			<path id="&lt;Path&gt;" class="s0"
				d="m314.6 402.3h-58.2c-13.5 13.5-13.5 13.5-13.5 13.5h66.2" />
			<path id="&lt;Path&gt;" class="s0" d="m250.3 394.8h65" />
			<path id="&lt;Path&gt;" class="s0" d="m292.4 324.7h38.3" />
			<path id="&lt;Path&gt;" class="s0" d="m274.1 271.1h5.6" />
			<path id="&lt;Path&gt;" class="s0" d="m274.1 281.4h5.6" />
			<path id="&lt;Path&gt;" class="s0" d="m274.1 291.7h5.6" />
			<path id="&lt;Path&gt;" class="s0" d="m274.1 301.9h5.6" />
			<path id="&lt;Path&gt;" class="s0"
				d="m255.4 312.3q0 0 0-0.1v-15.1c1.8-1.6 3.2-3.4 4.3-5.6" />
			<path id="&lt;Path&gt;" class="s0"
				d="m263.9 312.3q0 0 0-0.1v-15.1c-1.7-1.6-3.2-3.4-4.2-5.6" />
			<path id="&lt;Path&gt;" class="s0" d="m236.5 210.6v-25.7" />
			<path id="&lt;Path&gt;" class="s0" d="m313 209.4v-24.5" />
			<path id="&lt;Path&gt;" class="s0" d="m236.5 193.6h76.5" />
			<path id="&lt;Path&gt;" class="s0"
				d="m252.1 356.8c-0.3-2 1.1-4.1 3.1-4.7 1.9-0.5 4.2 0.5 5.1 2.4 0.5 1.1 0.5 2.3 0.6 3.5q0.1 9.7 0.3 19.4" />
			<path id="&lt;Path&gt;" class="s0"
				d="m252.1 428.4c-0.3-2 1.1-4.2 3.1-4.7 1.9-0.6 4.2 0.4 5.1 2.3 0.5 1.1 0.5 2.3 0.6 3.5q0.1 9.7 0.3 19.5" />
			<path id="&lt;Path&gt;" class="s0"
				d="m187.4 428.4c-0.2-2 1.1-4.2 3.1-4.7 2-0.6 4.3 0.4 5.1 2.3 0.5 1.1 0.6 2.3 0.6 3.5q0.2 9.7 0.3 19.5" />
			<path id="&lt;Path&gt;" class="s0"
				d="m270.5 428.4c-0.3-2 1.1-4.2 3-4.7 2-0.6 4.3 0.4 5.2 2.3 0.5 1.1 0.5 2.3 0.5 3.5q0.2 9.7 0.4 19.5" />
			<path id="&lt;Path&gt;" class="s0"
				d="m340.6 342.6c-0.2-1.6 0.9-3.3 2.5-3.8 1.6-0.5 3.5 0.4 4.2 1.9 0.4 0.9 0.5 1.9 0.5 2.9 0.1 5.3-0.2 9-0.2 9" />
			<path id="&lt;Path&gt;" class="s0"
				d="m428.2 461.4c0-1.6-1-3.3-2.7-3.8-1.8-0.5-3.9 0.4-4.6 1.9-0.5 0.9-0.5 1.9-0.5 2.9-0.1 5.3 0 37.6 0 37.6" />
			<path id="&lt;Path&gt;" class="s0"
				d="m354.6 342.6c-0.2-1.6 0.9-3.3 2.5-3.8 1.6-0.5 3.5 0.4 4.2 1.9 0.4 0.9 0.5 1.9 0.5 2.9 0.1 5.3-0.3 9-0.3 9" />
			<path id="&lt;Path&gt;" class="s0"
				d="m368.6 342.6c-0.2-1.6 0.9-3.3 2.5-3.8 1.6-0.5 3.5 0.4 4.2 1.9 0.4 0.9 0.5 1.9 0.5 2.9 0.1 5.3-0.3 9-0.3 9" />
			<path id="&lt;Path&gt;" class="s0"
				d="m382.6 342.6c-0.2-1.6 0.9-3.3 2.5-3.8 1.6-0.5 3.5 0.4 4.2 1.9 0.4 0.9 0.5 1.9 0.5 2.9 0.1 5.3-0.3 9-0.3 9" />
			<path id="&lt;Path&gt;" class="s0"
				d="m396.6 342.6c-0.2-1.6 0.9-3.3 2.5-3.8 1.6-0.5 3.5 0.4 4.2 1.9 0.4 0.9 0.5 1.9 0.5 2.9 0.1 5.3-0.3 9-0.3 9" />
			<path id="&lt;Path&gt;" class="s0"
				d="m289.6 356.8c0.3-2-1.1-4.1-3.1-4.7-1.9-0.5-4.2 0.5-5.1 2.4-0.5 1.1-0.5 2.3-0.6 3.5q-0.1 9.7-0.3 19.4" />
			<path id="&lt;Path&gt;" class="s0"
				d="m266.7 356.3c0.6-1.6 2.2-2.9 3.9-3.1 1.8-0.1 3.6 0.7 4.5 2.2" />
			<path id="&lt;Path&gt;" class="s0"
				d="m321.8 389.9l-20 40.8-12.7 8.1h62.3l-9.7-8.1-20-40.8" />
			<path id="&lt;Path&gt;" class="s0"
				d="m362.2 417.9l-23.6-40.8v-23.9h67.6v42.9l6 6.1v15.7l8.1 5.4v43.7" />
			<path id="&lt;Path&gt;" class="s0" d="m331.7 332.7h81.6l-7.1 20.5" />
			<path id="&lt;Path&gt;" class="s0" d="m413.3 332.7h-81.6l7.1 20.5" />
			<path id="&lt;Path&gt;" class="s0" d="m365.1 289.5v18.1" />
			<path id="&lt;Path&gt;" class="s0" d="m381.5 289.5v18.1" />
			<path id="&lt;Path&gt;" class="s0" d="m351.9 278.6l-5.5-12.3h26.9" />
			<path id="&lt;Path&gt;" class="s0" d="m392.9 278.6l5.5-12.3h-26.8" />
			<path id="&lt;Path&gt;" class="s0" d="m412.2 417.9h-29.2l-26-8.8" />
			<path id="&lt;Path&gt;" class="s0" d="m383 417.9l-31.6 20.9v61.2" />
			<path id="&lt;Path&gt;" class="s0" d="m420.3 423.3h-45.4" />
			<path id="&lt;Path&gt;" class="s0" d="m337.7 438.9v61.1" />
			<path id="&lt;Path&gt;" class="s0" d="m289.1 438.8v61.2" />
			<path id="&lt;Path&gt;" class="s0" d="m296 500l25.1-31.2h8.8" />
			<path id="&lt;Path&gt;" class="s0" d="m362.8 431.3v68.7" />
			<path id="&lt;Path&gt;" class="s0" d="m382.8 423.3v76.7" />
			<path id="&lt;Path&gt;" class="s0" d="m412.1 423.3v76.7" />
			<path id="&lt;Path&gt;" class="s0" d="m420.3 434.4l8 8v10.7h10.8v46.9" />
			<path id="&lt;Path&gt;" class="s0" d="m428.2 461.4v38.6" />
			<path id="&lt;Path&gt;" class="s0"
				d="m305.5 453.5c0-2-1.2-4-3.3-4.6-2.1-0.6-4.6 0.5-5.5 2.3-0.6 1.1-0.6 2.3-0.6 3.5-0.2 6.4-0.1 45.3-0.1 45.3" />
			<path id="&lt;Path&gt;" class="s0"
				d="m321.1 453.5c0-2 1.2-4 3.4-4.6 2.1-0.6 4.5 0.5 5.5 2.3 0.5 1.1 0.6 2.3 0.6 3.5 0.1 6.4 0 45.3 0 45.3" />
			<path id="&lt;Path&gt;" class="s0"
				d="m344.9 453.5c0-2-1-4-2.6-4.6-1.7-0.6-3.6 0.5-4.3 2.3-0.5 1.1-0.5 2.3-0.5 3.5-0.1 6.4 0 45.3 0 45.3" />
			<path id="&lt;Path&gt;" class="s0" d="m329.9 477.8h-15.9" />
			<path id="&lt;Path&gt;" class="s0" d="m330.3 485.2h-20.9" />
			<path id="&lt;Path&gt;" class="s0" d="m330.3 493.1h-26.4" />
			<path id="&lt;Path&gt;" class="s0" d="m301.8 430.7h39.9c20.5-12.8 20.5-12.8 20.5-12.8" />
			<path id="&lt;Path&gt;" class="s0" d="m243.4 415.8v33.9h45.6" />
			<path id="&lt;Path&gt;" class="s0" d="m204.3 450.1h-20.4" />
			<path id="&lt;Path&gt;" class="s0"
				d="m204.1 461.3q0-0.7 0-1.4v-24.5q-0.1 0-0.2 0c-2.6-2.7-3-6.9-1.6-10.5 1.3-3.5 4-6.4 6.9-8.9" />
			<path id="&lt;Path&gt;" class="s0"
				d="m209.3 424.9c-0.2-1.1-0.3-2.2 0.1-3.3 0.3-1 1.1-1.9 2.1-2.3 1.1-0.3 2.4 0 3 1 0.3 0.5 0.4 1.3 0.3 1.9-0.2 1.2-0.9 2.4-1.9 3.1 0.8 2.1 1.6 4.3 2.3 6.5 2.1 0.5 4.1 1.3 5.9 2.4 1.2-0.8 2.9-1.4 4.3-1.8-0.7-1.5-1.3-2.9-0.8-4.4 0.5-1.4 2-2.4 3.5-2.3 1.4 0.1 2.8 1.2 3.3 2.6 0.5 1.4 0.2 3-0.6 4.2 2.4 1.1 4 3.2 4.9 5.7 1 2.6 1.2 5.3 1.4 8 1.4-0.7 3.1-0.3 4.2 0.8 1.1 1.1 1.6 2.8 1.4 4.3-0.2 1.6-5.7 9.1-6.9 10" />
			<path id="&lt;Path&gt;" class="s0"
				d="m203.8 450.2c3.8-1.6 7.4-4 10.4-6.9-0.3-2-0.2-3.6-0.1-5.5 2.1 0.9 4.2 1.8 6.3 2.7 0.2 2.3 0.5 4.6 0.8 6.9" />
			<path id="&lt;Path&gt;" class="s0"
				d="m218.1 462q0-0.1 0-0.2v-7.9c-2.1-2.5-3.8-5.4-4.9-8.5" />
			<path id="&lt;Path&gt;" class="s0" d="m231.7 461.3c-1.1-4.4-9-6.9-13.6-7.4" />
			<path id="&lt;Path&gt;" class="s0" d="m231.1 440.6q0.1 0.7 0.2 1.5v7.5" />
			<path id="&lt;Path&gt;" class="s0" d="m240.1 462v38h-36v-38z" />
			<path id="&lt;Path&gt;" class="s0" d="m228.8 473.3v15.4h-13.5v-15.4z" />
		</g>
	</g>
</svg>